<svg width="256" height="125" viewBox="0 0 256 125" fill="none" xmlns="http://www.w3.org/2000/svg">
<g clip-path="url(#clip0_419_987)">
<path d="M51.3881 88.6475C50.6338 88.6483 49.9106 88.9598 49.3771 89.5136C48.8437 90.0674 48.5437 90.8182 48.5428 91.6013V98.5119C48.5437 99.295 48.8437 100.046 49.3771 100.6C49.9106 101.153 50.6338 101.465 51.3881 101.466H54.9971C55.7515 101.465 56.4747 101.153 57.0081 100.6C57.5415 100.046 57.8416 99.295 57.8424 98.5119V91.6013C57.8416 90.8182 57.5415 90.0674 57.0081 89.5136C56.4747 88.9598 55.7515 88.6483 54.9971 88.6475H51.3881Z" fill="#3F3D56"/>
<path d="M118.101 101.695H114.492C113.679 101.694 112.9 101.358 112.325 100.761C111.75 100.165 111.427 99.3553 111.426 98.5113V91.6007C111.427 90.7566 111.75 89.9474 112.325 89.3505C112.9 88.7537 113.679 88.418 114.492 88.417H118.101C118.914 88.418 119.694 88.7537 120.269 89.3505C120.844 89.9474 121.167 90.7566 121.168 91.6007V98.5113C121.167 99.3553 120.844 100.165 120.269 100.761C119.694 101.358 118.914 101.694 118.101 101.695Z" fill="#3F3D56"/>
<path d="M115.707 96.1622H53.5613C50.7331 96.1622 48.4321 94.4313 48.4321 92.3037V79.8978L51.5167 76.5254H118.351L120.836 79.9049V92.3037C120.836 94.4313 118.535 96.1622 115.707 96.1622Z" fill="#CCCCCC"/>
<path d="M118.061 82.7313H51.8711L51.1985 72.024L51.6265 70.9284L54.1145 64.5723H115.37L118.734 71.79L118.061 82.7313Z" fill="#CCCCCC"/>
<path d="M118.622 71.8131L118.128 79.8582H103.565V73.8817L118.208 70.9258L118.622 71.8131Z" fill="white"/>
<path d="M66.1458 73.8816V79.8581H51.8022L51.3105 72.0427L51.7291 70.9717L66.1458 73.8816Z" fill="white"/>
<path d="M115.001 66.4117H54.483L60.9377 44.0758C61.2009 43.1533 61.7431 42.3432 62.484 41.7653C63.2249 41.1873 64.1252 40.8721 65.052 40.8662L105.131 40.4699C106.099 40.4602 107.043 40.7872 107.811 41.3987C108.58 42.0103 109.129 42.8714 109.372 43.8447L115.001 66.4117Z" fill="#CCCCCC"/>
<path d="M110.342 64.2997L59.132 63.6693C59.0673 63.6685 59.0036 63.652 58.9462 63.621C58.8887 63.59 58.8391 63.5454 58.8012 63.4909C58.7634 63.4364 58.7384 63.3734 58.7282 63.307C58.7181 63.2406 58.7231 63.1727 58.7429 63.1087L63.6522 47.2076C63.6789 47.121 63.7315 47.0454 63.8023 46.9917C63.8732 46.9381 63.9586 46.9092 64.0462 46.9092H105.235C105.323 46.9092 105.408 46.9381 105.479 46.9917C105.55 47.0453 105.603 47.1208 105.629 47.2075L110.741 63.7389C110.761 63.8037 110.766 63.8726 110.755 63.9398C110.745 64.007 110.719 64.0706 110.68 64.1253C110.641 64.1801 110.59 64.2245 110.531 64.2548C110.472 64.2851 110.408 64.3005 110.342 64.2997Z" fill="white"/>
<path d="M54.5211 65.9517H45.443V63.8803C45.4437 63.2106 45.7003 62.5686 46.1564 62.0951C46.6125 61.6216 47.231 61.3552 47.876 61.3545H54.5211V65.9517Z" fill="#CCCCCC"/>
<path d="M124.047 65.9517H114.968V61.3545H121.614C122.259 61.3552 122.877 61.6216 123.333 62.0951C123.789 62.5686 124.046 63.2106 124.047 63.8803V65.9517Z" fill="#CCCCCC"/>
<path d="M44.381 98.243L0.000244141 114.794L0.188643 115.338L44.5694 98.7875L44.381 98.243Z" fill="#3F3D56"/>
<path d="M124.829 98.2436L124.641 98.7881L169.022 115.335L169.211 114.79L124.829 98.2436Z" fill="#3F3D56"/>
<path d="M87.2108 110.245H84.5543V106.683H87.2108V110.245ZM87.2108 103.121H84.5543V99.5586H87.2108V103.121Z" fill="#E6E6E6"/>
<path d="M87.2108 125H84.5543V121.438H87.2108V125ZM87.2108 117.875H84.5543V114.313H87.2108V117.875Z" fill="#E6E6E6"/>
<path d="M203.934 112.696H201.008L199.616 100.98H203.934V112.696Z" fill="#FFB8B8"/>
<path d="M204.68 115.64H195.246V115.516C195.247 114.505 195.635 113.537 196.323 112.822C197.011 112.107 197.945 111.705 198.918 111.704H204.68L204.68 115.64Z" fill="#2F2E41"/>
<path d="M241.663 106.94L239.155 108.504L232.149 99.2062L235.851 96.8975L241.663 106.94Z" fill="#FFB8B8"/>
<path d="M235.677 114.109L235.615 114.003C235.115 113.136 234.966 112.098 235.202 111.118C235.437 110.137 236.038 109.293 236.872 108.772L241.811 105.691L243.763 109.065L235.677 114.109Z" fill="#2F2E41"/>
<path d="M204.695 110.278L204.644 110.277C203.221 110.273 201.799 110.188 200.384 110.023C199.845 109.968 199.261 109.908 198.556 109.848L198.532 109.843C198.051 109.695 198.038 105.014 198.241 88.9931C198.346 80.7872 198.464 71.4867 198.323 65.5636L198.322 65.5054L198.364 65.4671C203.583 60.7545 210.286 58.988 217.237 60.493L217.289 60.5041L217.316 60.5512C220.191 65.6021 224.533 72.8775 228.731 79.9135C238.37 96.0649 241.126 100.815 240.824 101.173L240.788 101.203C240.129 101.544 239.635 101.807 239.215 102.031C237.808 102.78 237.226 103.09 234.098 104.427L234.02 104.46L233.964 104.396C224.184 93.2711 216.046 80.844 211.012 69.3559C210.424 73.2779 209.71 78.3991 208.956 83.8103C206.786 99.3704 205.32 109.616 204.73 110.24L204.695 110.278Z" fill="#2F2E41"/>
<path d="M219.884 15.8844C220.869 11.6627 221.703 6.90105 219.846 3.0128C218.557 0.314941 213.79 -0.593579 211.056 0.378353C208.323 1.35028 206.347 3.98721 205.478 6.86229C204.609 9.73736 204.71 12.8355 205.089 15.8243C210.115 15.7241 215.142 15.6238 219.884 15.8844Z" fill="#2F2E41"/>
<path d="M211.402 15.8837C214.639 15.8837 217.263 13.1594 217.263 9.79879C217.263 6.43818 214.639 3.71387 211.402 3.71387C208.165 3.71387 205.54 6.43818 205.54 9.79879C205.54 13.1594 208.165 15.8837 211.402 15.8837Z" fill="#FFB8B8"/>
<path d="M218.567 8.54497C218.586 7.52086 218.406 6.5033 218.038 5.55277C217.671 4.60224 217.123 3.73812 216.427 3.01178C215.731 2.28543 214.902 1.71166 213.989 1.32457C213.075 0.937487 212.096 0.744975 211.109 0.758477C210.123 0.771979 209.149 0.991221 208.246 1.40317C207.342 1.81513 206.528 2.41138 205.851 3.15652C205.174 3.90165 204.648 4.78046 204.305 5.74072C203.961 6.70098 203.807 7.72311 203.852 8.74636C208.869 8.75742 213.886 8.76848 218.567 8.54497Z" fill="#2F2E41"/>
<path d="M207.33 66.7602C213.161 66.7332 218.954 67.74 224.459 69.7374C224.65 60.1456 221.47 50.5361 215.718 43.3472L215.675 43.2935L215.697 43.2276C217.233 38.6195 218.821 33.8564 220.24 29.1169L220.219 29.0373C219.223 25.3647 217.088 21.6536 213.689 17.6916C213.32 17.2951 212.82 17.059 212.29 17.0311C211.76 17.0032 211.239 17.1857 210.834 17.5415C204.793 23.2905 201.508 31.9043 202.262 40.0216L202.264 40.0455L202.257 40.0686C199.596 49.4281 198.63 54.2355 197.778 58.477C197.156 61.571 196.618 64.2502 195.537 68.0781C199.411 67.203 203.365 66.7612 207.33 66.7602Z" fill="#3F3D56"/>
<path d="M176.143 30.1841L176.747 31.4017C176.752 31.413 176.753 31.426 176.75 31.4381C176.746 31.4501 176.738 31.4602 176.727 31.466L176.698 31.4815L179.842 37.8242C179.929 37.9998 179.945 38.204 179.887 38.3919C179.829 38.5799 179.702 38.7363 179.533 38.8266L175.715 40.8663C175.631 40.911 175.54 40.9382 175.446 40.9463C175.352 40.9543 175.258 40.9431 175.168 40.9133C175.079 40.8834 174.996 40.8356 174.924 40.7724C174.852 40.7092 174.793 40.632 174.75 40.5451L171.716 34.4248L171.695 34.436C171.687 34.4401 171.678 34.4409 171.67 34.4382C171.662 34.4355 171.655 34.4296 171.651 34.4217L171.307 33.7287C171.305 33.7248 171.304 33.7205 171.304 33.716C171.303 33.7116 171.304 33.7072 171.305 33.703C171.307 33.6987 171.309 33.6948 171.311 33.6914C171.314 33.688 171.318 33.6853 171.321 33.6832L171.342 33.672L171.213 33.411L171.192 33.4223C171.184 33.4266 171.174 33.4273 171.166 33.4245C171.157 33.4216 171.15 33.4153 171.146 33.4069L170.807 32.7234C170.803 32.7151 170.802 32.7055 170.805 32.6966C170.808 32.6877 170.814 32.6803 170.822 32.676L170.843 32.6646L170.666 32.3083L170.645 32.3199C170.638 32.3237 170.629 32.3244 170.622 32.3219C170.614 32.3194 170.608 32.3138 170.604 32.3065L170.419 31.9334C170.416 31.926 170.415 31.9174 170.417 31.9095C170.42 31.9015 170.425 31.8949 170.432 31.8911L170.454 31.8795L170.079 31.1243C169.992 30.9488 169.976 30.7447 170.034 30.5568C170.092 30.3688 170.22 30.2125 170.389 30.1222L174.206 28.0825C174.375 27.9922 174.572 27.9753 174.753 28.0355C174.934 28.0957 175.085 28.2281 175.172 28.4035L176.052 30.1791L176.081 30.1635C176.092 30.1578 176.105 30.1567 176.116 30.1605C176.128 30.1644 176.138 30.1729 176.143 30.1841Z" fill="#3F3D56"/>
<path d="M174.931 28.6976L179.564 38.0423C179.619 38.1536 179.63 38.2832 179.593 38.4024C179.556 38.5216 179.475 38.6208 179.368 38.6781L175.713 40.6306C175.606 40.688 175.482 40.6989 175.367 40.661C175.252 40.623 175.157 40.5393 175.101 40.4282L175.101 40.427L170.468 31.0823C170.441 31.0271 170.424 30.9669 170.419 30.9051C170.414 30.8433 170.421 30.7811 170.439 30.7221C170.458 30.663 170.487 30.6083 170.525 30.561C170.564 30.5136 170.611 30.4747 170.664 30.4463L171.211 30.1541L171.248 30.2269C171.27 30.2723 171.301 30.3127 171.338 30.3457C171.376 30.3787 171.419 30.4037 171.466 30.4193C171.513 30.4349 171.562 30.4407 171.611 30.4365C171.66 30.4323 171.708 30.4181 171.752 30.3947L173.61 29.4017C173.699 29.3545 173.765 29.2729 173.796 29.1747C173.826 29.0764 173.818 28.9698 173.772 28.8781L173.736 28.8052L174.319 28.4938C174.426 28.4365 174.551 28.4257 174.666 28.4639C174.781 28.502 174.876 28.586 174.931 28.6973L174.931 28.6976Z" fill="#46B9B0"/>
<path d="M174.643 38.4421C174.883 38.6977 175.179 38.8959 175.51 39.0226C175.84 39.1493 176.197 39.2014 176.556 39.1754C176.915 39.1493 177.266 39.0457 177.586 38.8718C177.905 38.6979 178.185 38.4579 178.405 38.1688L186.669 40.6443L185.519 36.3365L177.848 34.6462C177.347 34.3288 176.74 34.2091 176.141 34.3097C175.542 34.4103 174.993 34.7243 174.597 35.1922C174.202 35.6601 173.989 36.2494 173.997 36.8483C174.006 37.4473 174.235 38.0144 174.643 38.4421Z" fill="#FFB8B8"/>
<path d="M181.684 41.564L181.679 41.4525C181.614 39.317 181.467 37.0084 181.324 34.7757L181.315 34.6417L181.451 34.6425C187.571 34.6812 193.858 34.5905 199.939 34.5024C199.943 34.4953 199.945 34.4899 199.947 34.4859L199.984 34.5016L200.008 34.5013L200.008 34.5119L200.032 34.522L199.961 34.4475L206.563 27.5849C207.054 25.8344 209.216 23.8189 211.68 23.5872C214.233 23.347 216.686 25.234 216.931 27.6251C216.978 28.2651 216.879 28.9128 216.641 29.5203C216.404 30.1277 216.033 30.6792 215.558 31.1341C215.151 31.5607 214.657 31.8952 214.111 32.1133C213.566 32.3313 212.982 32.4274 212.404 32.3945C208.833 35.9324 205.375 38.7671 202.031 41.5091L201.997 41.5365L201.954 41.539C195.311 41.7632 188.44 41.6628 181.796 41.5657L181.684 41.564Z" fill="#3F3D56"/>
<path d="M84.6646 28.6713C91.9433 28.6713 97.8439 22.5457 97.8439 14.9895C97.8439 7.43318 91.9433 1.30762 84.6646 1.30762C77.3859 1.30762 71.4854 7.43318 71.4854 14.9895C71.4854 22.5457 77.3859 28.6713 84.6646 28.6713Z" fill="#46B9B0"/>
<path d="M83.4087 20.7647L79.4641 15.4994L81.758 13.6472L83.6258 16.1403L89.9353 9.22559L92.0453 11.3009L83.4087 20.7647Z" fill="white"/>
<path d="M255.721 116.016H189.114C189.04 116.016 188.969 115.986 188.917 115.931C188.865 115.877 188.836 115.804 188.836 115.727C188.836 115.65 188.865 115.577 188.917 115.522C188.969 115.468 189.04 115.438 189.114 115.438H255.721C255.795 115.438 255.866 115.468 255.918 115.522C255.971 115.577 256 115.65 256 115.727C256 115.804 255.971 115.877 255.918 115.931C255.866 115.986 255.795 116.016 255.721 116.016Z" fill="#3F3D56"/>
</g>
<defs>
<clipPath id="clip0_419_987">
<rect width="256" height="125" fill="white"/>
</clipPath>
</defs>
</svg>
